HIERARCHY
ROOT Hips
{
	OFFSET 0.000000 0.000000 0.000000
	CHANNELS 6 Xposition Yposition Zposition Xrotation Yrotation Zrotation
	JOINT LeftUpLeg_virtual
	{
		OFFSET 0.000000 0.000000 0.000000
		CHANNELS 3 Xrotation Yrotation Zrotation
		JOINT LeftUpLeg
		{
			OFFSET 11.394100 -6.187798 -0.413800
			CHANNELS 3 Xrotation Yrotation Zrotation
			JOINT LeftLeg
			{
				OFFSET 0.430247 -32.302673 3.732800
				CHANNELS 3 Xrotation Yrotation Zrotation
				JOINT LeftFoot
				{
					OFFSET -0.430247 -48.264931 -6.423300
					CHANNELS 3 Xrotation Yrotation Zrotation
					JOINT LeftToeBase
					{
						OFFSET 4.230900 -16.068199 23.438400
						CHANNELS 3 Xrotation Yrotation Zrotation
						JOINT LeftToe_End
						{
							OFFSET 4.510700 0.695400 19.974600
							CHANNELS 3 Xrotation Yrotation Zrotation
							End Site
							{
								OFFSET 0 0 0
							}
						}
					}
				}
			}
		}
	}
	JOINT RightUpLeg_virtual
	{
		OFFSET 0.000000 0.000000 0.000000
		CHANNELS 3 Xrotation Yrotation Zrotation
		JOINT RightUpLeg
		{
			OFFSET -11.333700 -6.187798 -0.413800
			CHANNELS 3 Xrotation Yrotation Zrotation
			JOINT RightLeg
			{
				OFFSET -0.430392 -32.302628 3.733000
				CHANNELS 3 Xrotation Yrotation Zrotation
				JOINT RightFoot
				{
					OFFSET 0.430392 -48.264973 -6.423500
					CHANNELS 3 Xrotation Yrotation Zrotation
					JOINT RightToeBase
					{
						OFFSET -4.230900 -16.068199 23.438400
						CHANNELS 3 Xrotation Yrotation Zrotation
						JOINT RightToe_End
						{
							OFFSET -4.510700 0.695400 19.974600
							CHANNELS 3 Xrotation Yrotation Zrotation
							End Site
							{
								OFFSET 0 0 0
							}
						}
					}
				}
			}
		}
	}
	JOINT Spine_virtual
	{
		OFFSET 0.000000 0.000000 0.000000
		CHANNELS 3 Xrotation Yrotation Zrotation
		JOINT Spine
		{
			OFFSET -0.002400 12.777504 0.315300
			CHANNELS 3 Xrotation Yrotation Zrotation
			JOINT Spine1
			{
				OFFSET -0.002067 5.816869 0.032633
				CHANNELS 3 Xrotation Yrotation Zrotation
				JOINT Spine1_split
				{
					OFFSET -0.002067 5.816869 0.032633
					CHANNELS 3 Xrotation Yrotation Zrotation
					JOINT Spine2
					{
						OFFSET -0.002067 5.816869 0.032633
						CHANNELS 3 Xrotation Yrotation Zrotation
						JOINT Neck_virtual
						{
							OFFSET 0.000000 0.000000 0.000000
							CHANNELS 3 Xrotation Yrotation Zrotation
							JOINT Neck
							{
								OFFSET -0.003700 21.199493 -0.826900
								CHANNELS 3 Xrotation Yrotation Zrotation
								JOINT Head
								{
									OFFSET 0.000000 20.442200 4.834800
									CHANNELS 3 Xrotation Yrotation Zrotation
									JOINT HeadTop_End
									{
										OFFSET 0.000000 34.668396 4.968400
										CHANNELS 3 Xrotation Yrotation Zrotation
										End Site
										{
											OFFSET 0 0 0
										}
									}
								}
							}
						}
						JOINT LeftShoulder_virtual
						{
							OFFSET 0.000000 0.000000 0.000000
							CHANNELS 3 Xrotation Yrotation Zrotation
							JOINT LeftShoulder
							{
								OFFSET 3.288150 8.794197 -1.372250
								CHANNELS 3 Xrotation Yrotation Zrotation
								JOINT LeftShoulder_split
								{
									OFFSET 3.288150 8.794197 -1.372250
									CHANNELS 3 Xrotation Yrotation Zrotation
									JOINT LeftArm
									{
										OFFSET 11.953299 -2.279007 -0.146200
										CHANNELS 3 Xrotation Yrotation Zrotation
										JOINT LeftForeArm
										{
											OFFSET 18.448900 0.000000 0.000000
											CHANNELS 3 Xrotation Yrotation Zrotation
											JOINT LeftHand
											{
												OFFSET 29.527798 0.000000 0.000000
												CHANNELS 3 Xrotation Yrotation Zrotation
												End Site
												{
													OFFSET 0 0 0
												}
											}
										}
									}
								}
							}
						}
						JOINT RightShoulder_virtual
						{
							OFFSET 0.000000 0.000000 0.000000
							CHANNELS 3 Xrotation Yrotation Zrotation
							JOINT RightShoulder
							{
								OFFSET -3.249400 8.794197 -1.372250
								CHANNELS 3 Xrotation Yrotation Zrotation
								JOINT RightShoulder_split
								{
									OFFSET -3.249400 8.794197 -1.372250
									CHANNELS 3 Xrotation Yrotation Zrotation
									JOINT RightArm
									{
										OFFSET -11.953299 -2.279007 -0.146200
										CHANNELS 3 Xrotation Yrotation Zrotation
										JOINT RightForeArm
										{
											OFFSET -18.448900 0.000000 0.000000
											CHANNELS 3 Xrotation Yrotation Zrotation
											JOINT RightHand
											{
												OFFSET -29.527802 0.000000 0.000000
												CHANNELS 3 Xrotation Yrotation Zrotation
												End Site
												{
													OFFSET 0 0 0
												}
											}
										}
									}
								}
							}
						}
					}
				}
			}
		}
	}
}
MOTION
Frames: 5
Frame Time: 0.03333333
5.543944 103.665451 -0.625641 0.000000 0.000000 0.000000 -1.775506 -15.592229 -3.391491 -13.814767 23.047992 11.045544 17.070724 11.303418 4.793673 -4.132378 7.306973 -8.858185 2.439198 0.433955 -1.875326 0.000000 0.000000 0.000000 -1.289452 -13.352321 -3.458166 -19.531657 -18.495268 -6.443689 9.956556 8.118365 -5.474183 9.400667 9.110776 4.735069 -1.637668 -0.990106 -0.570136 0.000000 0.000000 0.000000 -2.619157 -14.900432 -4.146029 0.667667 -0.654417 -0.581284 0.143265 -1.022397 -0.557091 1.066543 -0.961626 0.134999 0.000000 0.000000 0.000000 0.962693 -0.461365 -0.596276 1.209225 1.195448 2.434271 -1.025476 14.750113 -1.259171 0.000000 0.000000 0.000000 0.560093 -0.267068 -0.678827 -0.494233 8.936799 -0.259358 -5.617289 0.102893 -1.030555 40.729197 -59.779414 -27.687487 0.132287 -28.544578 1.458027 0.000000 0.000000 0.000000 1.060717 -0.534846 -1.040352 5.234822 4.743866 -14.439314 1.266601 4.619912 -0.461404 -39.904294 -17.991277 40.677233 179.795127 70.707614 179.958669 0.000000 0.000000 0.000000 
5.333840 103.670982 -0.636871 0.000000 0.000000 0.000000 -1.782996 -15.258482 -3.364603 -13.891202 22.898079 11.255676 17.109422 11.275785 4.823721 -4.017833 7.086555 -9.063865 2.399728 0.442240 -1.856942 0.000000 0.000000 0.000000 -1.285653 -13.014510 -3.433245 -19.330450 -18.267247 -6.335599 10.120463 8.005199 -5.303539 9.082742 8.525629 4.416783 -1.561176 -1.026200 -0.577939 0.000000 0.000000 0.000000 -2.612528 -14.561465 -4.117631 0.630156 -0.635282 -0.478594 0.145164 -1.019350 -0.474572 1.056439 -0.859035 0.118084 0.000000 0.000000 0.000000 0.915394 -0.476387 -0.504835 1.135146 1.189187 2.331354 -1.095479 14.603639 -1.236577 0.000000 0.000000 0.000000 0.512760 -0.255251 -0.607603 -0.464220 8.904034 -0.421228 -5.619546 -0.056227 -0.981819 40.832957 -60.026202 -27.592410 0.081151 -28.524277 1.434555 0.000000 0.000000 0.000000 1.042208 -0.521351 -0.975401 5.201592 4.839764 -13.614906 1.242013 4.594211 -0.525219 -37.346098 -15.400125 40.928409 179.917797 71.435671 179.876461 0.000000 0.000000 0.000000 
5.107606 103.691528 -0.647953 0.000000 0.000000 0.000000 -1.785146 -14.890917 -3.338293 -13.970057 22.675677 11.473184 17.144374 11.239325 4.842630 -3.865887 6.875753 -9.272924 2.386350 0.453620 -1.844458 0.000000 0.000000 0.000000 -1.284035 -12.652427 -3.410120 -19.089733 -18.071142 -6.205077 10.242717 7.901971 -5.137597 8.773222 7.938247 4.101868 -1.522469 -1.056329 -0.605925 0.000000 0.000000 0.000000 -2.595839 -14.206517 -4.093215 0.589178 -0.622620 -0.375645 0.151759 -1.026716 -0.399343 1.048537 -0.763784 0.088889 0.000000 0.000000 0.000000 0.874513 -0.495745 -0.423534 1.052513 1.184265 2.278936 -1.148075 14.455250 -1.194168 0.000000 0.000000 0.000000 0.475334 -0.253145 -0.543192 -0.434434 8.862817 -0.538265 -5.593075 -0.211301 -0.954087 40.841618 -60.296227 -27.557035 0.023635 -28.443723 1.400401 0.000000 0.000000 0.000000 1.026365 -0.516605 -0.915133 5.154240 4.929041 -12.661606 1.220992 4.565700 -0.597843 -34.722291 -12.679216 41.083212 -179.930774 72.294281 179.769814 0.000000 0.000000 0.000000 
4.866989 103.726585 -0.648159 0.000000 0.000000 0.000000 -1.767406 -14.478329 -3.297617 -14.048943 22.390562 11.679775 17.148091 11.194459 4.856884 -3.677443 6.678244 -9.486584 2.388051 0.466872 -1.834382 0.000000 0.000000 0.000000 -1.272741 -12.259207 -3.375915 -18.825186 -17.925065 -6.062174 10.307242 7.819423 -4.988760 8.473104 7.379859 3.805791 -1.525780 -1.076847 -0.639543 0.000000 0.000000 0.000000 -2.563029 -13.831791 -4.059584 0.541768 -0.617385 -0.277591 0.160529 -1.041413 -0.336750 1.039630 -0.655227 0.052337 0.000000 0.000000 0.000000 0.836853 -0.517532 -0.357538 0.951935 1.175205 2.280420 -1.193736 14.291291 -1.120288 0.000000 0.000000 0.000000 0.442323 -0.256303 -0.492257 -0.408972 8.824134 -0.594274 -5.532885 -0.357973 -0.937680 40.762917 -60.591899 -27.593657 -0.038521 -28.293068 1.356854 0.000000 0.000000 0.000000 1.009809 -0.519018 -0.865636 5.096319 5.011825 -11.586406 1.185902 4.511988 -0.659151 -32.000584 -9.807469 41.093539 -179.740868 73.289774 179.631830 0.000000 0.000000 0.000000 
4.621275 103.766785 -0.629581 0.000000 0.000000 0.000000 -1.724677 -14.031071 -3.231945 -14.125117 22.062276 11.866424 17.105224 11.142855 4.869797 -3.459346 6.492246 -9.706220 2.387138 0.479178 -1.819736 0.000000 0.000000 0.000000 -1.235977 -11.837550 -3.319161 -18.556330 -17.850080 -5.919372 10.331571 7.755129 -4.867992 8.162131 6.865298 3.498959 -1.514114 -1.085526 -0.661477 0.000000 0.000000 0.000000 -2.512533 -13.447694 -4.005214 0.490103 -0.621472 -0.189921 0.169054 -1.059442 -0.289256 1.027173 -0.560644 0.017626 0.000000 0.000000 0.000000 0.797915 -0.539198 -0.308771 0.826288 1.155720 2.324902 -1.233056 14.094850 -1.007909 0.000000 0.000000 0.000000 0.408928 -0.261827 -0.455833 -0.392992 8.795060 -0.582031 -5.448026 -0.489862 -0.923805 40.616458 -60.904961 -27.700090 -0.102059 -28.081604 1.310945 0.000000 0.000000 0.000000 0.987625 -0.524874 -0.828138 5.030679 5.084369 -10.415737 1.161893 4.432432 -0.706286 -29.171400 -6.794791 40.944843 -179.522124 74.420280 179.472865 0.000000 0.000000 0.000000 
